<?xml version="1.0" encoding="utf-8"?>
<!-- Generator: Adobe Illustrator 25.0.0, SVG Export Plug-In . SVG Version: 6.00 Build 0)  -->
<svg version="1.1" id="Layer_1" xmlns="http://www.w3.org/2000/svg" xmlns:xlink="http://www.w3.org/1999/xlink" x="0px" y="0px"
	 viewBox="0 0 27.6 25.8" style="enable-background:new 0 0 27.6 25.8;" xml:space="preserve">
<g>
	<path d="M12.7,22.4c-0.4-0.5-0.9-1.1-1.5-1.9c-0.6-0.8-1.3-1.7-1.9-2.7c-0.6-1-1.2-2.1-1.7-3.3C7.1,13.2,6.8,12,6.7,11
		c-0.1-0.3-0.1-0.6-0.1-0.9c0-2,0.7-3.7,2.1-5.1s3.1-2.1,5.1-2.1s3.7,0.7,5.1,2.1S21,8.1,21,10.1c0,0.3,0,0.6-0.1,0.9
		c-0.1,1.1-0.4,2.2-0.9,3.5c-0.5,1.2-1,2.3-1.6,3.2c-0.6,0.9-1.2,1.9-1.9,2.8S15.3,22,15,22.4c-0.3,0.3-0.5,0.6-0.6,0.7
		c-0.1,0.1-0.2,0.2-0.3,0.3c-0.1,0-0.1,0-0.2,0c-0.1,0-0.1,0-0.2,0c-0.1-0.1-0.2-0.2-0.3-0.3C13.3,23.1,13.1,22.8,12.7,22.4z
		 M7.9,10.1c0,0.2,0,0.5,0,0.8c0.1,1,0.4,2.1,0.9,3.2c0.5,1.2,1.1,2.3,1.8,3.3c0.7,1,1.3,1.9,1.8,2.5c0.5,0.7,1,1.3,1.5,1.8
		c0.5-0.6,0.9-1.2,1.4-1.8c0.5-0.7,1.1-1.5,1.8-2.5c0.7-1,1.3-2.1,1.7-3.3c0.5-1.2,0.8-2.2,0.9-3.2c0.1-0.3,0.1-0.5,0.1-0.8
		c0-1.6-0.6-3-1.7-4.2s-2.6-1.7-4.2-1.7s-3,0.6-4.2,1.7S7.9,8.4,7.9,10.1z M10.4,10.1c0-0.9,0.3-1.7,1-2.4s1.4-1,2.4-1
		s1.7,0.3,2.4,1c0.7,0.7,1,1.4,1,2.4c0,0.9-0.3,1.7-1,2.4c-0.7,0.7-1.4,1-2.4,1s-1.7-0.3-2.4-1C10.8,11.8,10.4,11,10.4,10.1z
		 M11.7,10.1c0,0.6,0.2,1.1,0.6,1.5c0.4,0.4,0.9,0.6,1.5,0.6s1.1-0.2,1.5-0.6c0.4-0.4,0.6-0.9,0.6-1.5c0-0.6-0.2-1.1-0.6-1.5
		C14.9,8.2,14.4,8,13.8,8s-1.1,0.2-1.5,0.6C11.9,9,11.7,9.5,11.7,10.1z"/>
</g>
</svg>
