<?xml version="1.0" encoding="utf-8"?>
<!-- Generator: Adobe Illustrator 25.0.0, SVG Export Plug-In . SVG Version: 6.00 Build 0)  -->
<svg version="1.1" id="Layer_1" xmlns="http://www.w3.org/2000/svg" xmlns:xlink="http://www.w3.org/1999/xlink" x="0px" y="0px"
	 viewBox="0 0 27.6 25.8" style="enable-background:new 0 0 27.6 25.8;" xml:space="preserve">
<g>
	<path d="M11.5,7.5c-0.6,0.6-1,1.2-1.4,1.9c-0.4,0.6-0.6,1-0.6,1.2c0.1,0.6,0.8,1.7,2,3.2c1.3,1.5,2.8,2.7,4.6,3.6
		c0.7-0.1,1.8-0.8,3.2-2c0.2-0.2,0.4-0.2,0.7-0.1c0.6,0.2,1.2,0.4,1.7,0.7c0.5,0.3,1,0.5,1.3,0.8c0.3,0.3,0.6,0.5,0.9,0.8
		c0.3,0.3,0.4,0.5,0.5,0.6c0.1,0.1,0.1,0.2,0.2,0.3c0.1,0.2,0.1,0.3,0.1,0.5c-0.1,0.7-0.3,1.3-0.6,1.9c-0.2,0.6-0.5,1-0.7,1.3
		c-0.2,0.3-0.5,0.6-0.8,0.9c-0.3,0.2-0.5,0.4-0.6,0.5c-0.1,0.1-0.2,0.1-0.3,0.2c-0.1,0.1-0.2,0.1-0.3,0.1c-0.1,0-0.2,0-0.2,0
		c-0.1,0-0.3-0.1-0.6-0.2c-0.7-0.2-1.3-0.4-1.8-0.5c-0.5-0.2-1.2-0.5-2.3-0.9c-1-0.5-2-1-2.8-1.5c-0.8-0.5-1.8-1.3-2.9-2.2
		c-1.1-1-2.1-2-3-3.2C7,14.1,6.1,12.7,5.2,11C4.3,9.3,3.6,7.4,2.9,5.5c0-0.2,0-0.3,0-0.4c0-0.1,0-0.2,0.1-0.3c0-0.1,0.2-0.3,0.4-0.6
		c0.2-0.3,0.5-0.6,0.8-0.8c0.3-0.2,0.7-0.5,1.3-0.7c0.6-0.2,1.3-0.4,2-0.6c0.1,0,0.3,0,0.4,0c0.1,0,0.3,0.1,0.4,0.2
		c0.2,0.1,0.5,0.3,0.9,0.6c0.4,0.3,0.8,0.6,1.1,1c0.3,0.4,0.6,0.8,0.9,1.4c0.3,0.6,0.5,1.1,0.5,1.8C11.7,7.2,11.7,7.4,11.5,7.5z"/>
</g>
</svg>
