<?xml version="1.0" encoding="utf-8"?>
<!-- Generator: Adobe Illustrator 25.0.0, SVG Export Plug-In . SVG Version: 6.00 Build 0)  -->
<svg version="1.1" id="Layer_1" xmlns="http://www.w3.org/2000/svg" xmlns:xlink="http://www.w3.org/1999/xlink" x="0px" y="0px"
	 viewBox="0 0 27.6 25.8" style="enable-background:new 0 0 27.6 25.8;" xml:space="preserve">
<style type="text/css">
	.st0{fill:#C52D27;}
</style>
<g>
	<path class="st0" d="M26.4,10.5c0,2.8-1,5.2-3,7.2s-4.4,3-7.2,3c-2.4,0-4.5-0.8-6.4-2.3l-6.7,6.7c-0.2,0.2-0.4,0.3-0.8,0.3
		s-0.6-0.1-0.8-0.3c-0.2-0.2-0.3-0.5-0.3-0.8s0.1-0.6,0.3-0.8l6.7-6.7C6.8,15,6,12.9,6,10.5c0-2.8,1-5.2,3-7.2s4.4-3,7.2-3
		c2.8,0,5.2,1,7.2,3S26.4,7.7,26.4,10.5z M24.8,10.5c0-2.4-0.8-4.4-2.5-6.1c-1.7-1.7-3.7-2.5-6.1-2.5c-2.4,0-4.4,0.8-6.1,2.5
		s-2.5,3.7-2.5,6.1s0.8,4.4,2.5,6.1s3.7,2.5,6.1,2.5c2.4,0,4.4-0.8,6.1-2.5C24,14.9,24.8,12.9,24.8,10.5z"/>
</g>
</svg>
