<svg id="Layer_1" data-name="Layer 1" xmlns="http://www.w3.org/2000/svg" viewBox="0 0 27.95 25.35"><defs><style>.cls-1{fill:#c52d27;}</style></defs><path class="cls-1" d="M27.24,5.2A8,8,0,0,0,20.11.33,7.53,7.53,0,0,0,14,3.08,7.53,7.53,0,0,0,7.89.33,8,8,0,0,0,.76,5.2a8.35,8.35,0,0,0,1.59,9.17c5.7,6.39,10.73,10.92,10.78,11a1.31,1.31,0,0,0,1.74,0c.05-.05,5.08-4.58,10.78-11A8.35,8.35,0,0,0,27.24,5.2Zm-3.53,7.44c-4.21,4.73-8,8.41-9.71,10-1.66-1.54-5.49-5.23-9.71-10A5.76,5.76,0,0,1,3.13,6.26,5.42,5.42,0,0,1,7.89,2.93c3.88,0,4.76,2.9,4.85,3.24a1.29,1.29,0,0,0,1.25,1h0a1.31,1.31,0,0,0,1.26-1c.09-.33,1-3.24,4.85-3.24a5.44,5.44,0,0,1,4.76,3.33A5.76,5.76,0,0,1,23.71,12.64Zm-.32-3.76a1.13,1.13,0,0,1-1.06,1.21h-.07A1.14,1.14,0,0,1,21.12,9C21,7.19,19.8,6.89,19.55,6.84a1.13,1.13,0,0,1-1-1.28,1.15,1.15,0,0,1,1.29-1A4.35,4.35,0,0,1,23.39,8.88Zm-1.57,1.89a1.3,1.3,0,0,1,0,1.84,1.29,1.29,0,0,1-1.83,0,1.3,1.3,0,0,1,.91-2.22A1.3,1.3,0,0,1,21.82,10.77Z" transform="translate(-0.03 -0.33)"/></svg>