<svg id="Layer_1" data-name="Layer 1" xmlns="http://www.w3.org/2000/svg" viewBox="0 0 27.6 25.8"><defs><style>.cls-1{fill:#c52d27;}</style></defs><path class="cls-1" d="M14,16.33A8.12,8.12,0,1,0,5.92,8.21,8.11,8.11,0,0,0,14,16.33ZM14,2.5A5.72,5.72,0,1,1,8.32,8.21,5.7,5.7,0,0,1,14,2.5Zm3.74,14.62a1.18,1.18,0,0,0-1.14.23L14,19.56l-2.6-2.21a1.18,1.18,0,0,0-1.14-.23C8.58,17.66.2,20.54.2,24.7a1.2,1.2,0,0,0,1.2,1.2H26.6a1.2,1.2,0,0,0,1.2-1.2C27.8,20.54,19.42,17.66,17.74,17.12ZM3.23,23.5c1.32-1.4,4.49-3,7.13-3.88l2.86,2.43a1.21,1.21,0,0,0,1.56,0l2.86-2.43c2.64.92,5.81,2.48,7.13,3.88Z" transform="translate(-0.2 -0.1)"/></svg>