<?xml version="1.0" encoding="utf-8"?>
<!-- Generator: Adobe Illustrator 25.0.0, SVG Export Plug-In . SVG Version: 6.00 Build 0)  -->
<svg version="1.1" id="Layer_1" xmlns="http://www.w3.org/2000/svg" xmlns:xlink="http://www.w3.org/1999/xlink" x="0px" y="0px"
	 viewBox="0 0 27.6 25.8" style="enable-background:new 0 0 27.6 25.8;" xml:space="preserve">
<g>
	<path d="M27.1,3.5c0.3,0.3,0.5,0.7,0.5,1.2v2.9l-13.8,5.5L0,7.6V4.7c0-0.5,0.2-0.9,0.5-1.2C0.9,3.1,1.3,3,1.7,3h24.1
		C26.3,3,26.7,3.1,27.1,3.5z M13.8,15.9l13.8-5.5V22c0,0.5-0.2,0.9-0.5,1.2c-0.3,0.3-0.7,0.5-1.2,0.5H1.7c-0.5,0-0.9-0.2-1.2-0.5
		C0.2,22.8,0,22.4,0,22V10.4L13.8,15.9z"/>
</g>
</svg>
